<?xml version="1.0" standalone="no"?>
<!DOCTYPE svg PUBLIC "-//W3C//DTD SVG 20010904//EN"
 "http://www.w3.org/TR/2001/REC-SVG-20010904/DTD/svg10.dtd">
<svg version="1.0" xmlns="http://www.w3.org/2000/svg"
 width="1024.000000pt" height="1024.000000pt" viewBox="0 0 1024.000000 1024.000000"
 preserveAspectRatio="xMidYMid meet">

<g transform="translate(0.000000,1024.000000) scale(0.100000,-0.100000)"
fill="#000000" stroke="none">
<path d="M0 5120 l0 -5120 5120 0 5120 0 0 5120 0 5120 -5120 0 -5120 0 0
-5120z m2293 3965 c28 -20 36 -75 37 -227 0 -98 4 -139 13 -145 6 -4 73 -10
147 -11 151 -4 170 -12 170 -67 0 -58 -22 -67 -177 -72 -110 -4 -141 -8 -150
-21 -9 -11 -13 -54 -13 -133 0 -112 -1 -119 -26 -148 -48 -58 -111 -30 -125
55 -4 27 -8 81 -8 120 -1 39 -4 86 -7 103 l-6 31 -129 -7 c-110 -5 -131 -4
-153 11 -19 12 -26 25 -26 49 0 62 12 68 160 78 74 6 139 14 146 20 8 6 14 64
19 165 7 145 9 157 32 185 27 32 66 38 96 14z m4827 -137 c30 -32 40 -81 40
-194 l0 -102 109 -4 c92 -3 114 -7 138 -24 41 -30 41 -59 2 -83 -35 -21 -143
-42 -199 -38 l-35 2 -10 -90 c-11 -95 -20 -118 -54 -149 -46 -42 -81 17 -90
152 l-6 94 -100 2 c-73 1 -108 6 -132 19 -43 23 -51 52 -23 82 27 28 56 36
170 44 l85 6 -3 79 c-4 97 11 173 40 203 27 29 42 29 68 1z m-1876 -31 c45
-35 76 -94 76 -147 0 -56 -35 -126 -79 -156 -23 -16 -30 -24 -18 -24 16 0 17
-19 17 -248 0 -137 3 -344 7 -460 l6 -212 -111 0 -112 0 0 449 c0 492 -4 460
58 462 25 1 25 1 -6 10 -49 15 -107 77 -121 132 -21 84 18 173 91 211 52 26
146 18 192 -17z m-1959 -55 c119 -61 180 -211 140 -348 -43 -147 -220 -226
-360 -160 -116 54 -174 169 -153 302 17 107 76 181 175 219 51 20 148 13 198
-13z m4749 -163 c37 -44 36 -101 -3 -140 -61 -61 -161 -14 -161 76 0 54 45 94
107 95 23 0 38 -8 57 -31z m-2194 -189 c110 -56 165 -213 112 -317 -12 -24
-68 -91 -125 -151 -56 -60 -158 -170 -227 -244 l-125 -136 -8 157 c-5 86 -6
235 -4 332 4 147 7 182 24 220 23 50 79 111 124 135 69 35 163 37 229 4z
m-1174 -12 c49 -31 92 -80 112 -128 13 -31 29 -367 32 -664 l0 -59 -22 29
c-12 16 -115 126 -229 245 -233 244 -254 276 -254 379 1 102 55 182 147 217
55 21 166 11 214 -19z m3771 -173 c14 -9 34 -37 45 -62 17 -39 19 -52 9 -84
-28 -94 -135 -130 -206 -68 -125 110 13 305 152 214z m-6564 -16 c70 -46 92
-88 92 -179 0 -69 -3 -79 -33 -123 -46 -65 -98 -91 -187 -92 -82 0 -104 13
-157 89 -30 44 -33 56 -33 120 0 60 4 79 28 119 57 97 196 129 290 66z m859
-38 c47 -30 88 -95 88 -142 0 -46 -21 -100 -53 -136 -74 -84 -187 -85 -251 0
-127 166 44 387 216 278z m1224 -7 c30 -17 49 -38 70 -80 21 -42 71 -99 179
-208 83 -83 221 -226 308 -318 l157 -167 -72 -78 c-40 -43 -77 -79 -83 -81
-11 -3 -493 478 -580 579 -48 57 -63 67 -96 72 -55 7 -87 31 -110 80 -24 53
-24 91 0 144 21 45 54 72 104 83 41 10 72 3 123 -26z m3764 13 c72 -38 108
-129 80 -203 -15 -38 -56 -85 -99 -111 -90 -56 -212 0 -242 110 -22 84 13 161
93 201 64 32 112 33 168 3z m-1220 -9 c39 -27 70 -81 70 -123 0 -37 -30 -104
-58 -128 -11 -10 -40 -21 -65 -25 -39 -6 -50 -15 -97 -71 -62 -74 -570 -601
-579 -600 -3 0 -38 40 -78 89 l-72 88 207 217 c331 346 404 427 424 473 12 25
36 55 60 72 54 39 137 42 188 8z m-3299 -147 c47 -47 36 -103 -25 -125 -10 -3
-27 -4 -38 -1 -20 7 -48 54 -48 80 0 19 53 75 70 75 6 0 25 -13 41 -29z m5607
-148 c17 -23 15 -78 -3 -93 -8 -6 -31 -12 -51 -13 -64 -2 -86 62 -38 109 19
20 31 24 52 19 15 -3 33 -13 40 -22z m-6588 -176 c14 -7 34 -26 45 -43 l20
-31 428 0 c469 1 448 4 466 -60 13 -46 -5 -75 -54 -86 -22 -4 -223 -7 -447 -5
-310 2 -409 0 -412 -9 -9 -21 -70 -46 -113 -45 -78 1 -153 70 -153 142 0 108
125 185 220 137z m6004 -1 c64 -27 100 -109 77 -179 -23 -68 -110 -120 -174
-103 -13 3 -42 18 -66 34 l-42 29 -424 -5 c-232 -3 -434 -2 -448 2 -29 7 -61
67 -52 96 3 11 18 29 33 41 27 21 32 21 459 18 l433 -3 37 36 c21 19 45 38 53
41 28 10 81 7 114 -7z m581 -26 c23 -44 19 -78 -9 -91 -50 -23 -111 13 -100
59 16 66 81 86 109 32z m-4955 -98 c36 -17 204 -180 365 -355 l90 -97 -125 2
c-69 2 -213 1 -320 -1 -183 -4 -198 -3 -236 17 -55 28 -98 79 -124 149 -20 52
-21 64 -11 113 13 65 53 126 101 154 79 46 182 54 260 18z m2775 7 c26 -7 58
-29 91 -63 96 -95 101 -226 13 -321 -66 -71 -87 -75 -431 -75 l-299 0 72 83
c146 167 300 326 345 356 40 26 57 31 108 31 34 0 79 -5 101 -11z m-4935 -31
c28 -47 27 -95 -4 -109 -30 -14 -70 -5 -96 21 -27 27 -25 52 6 89 35 42 68 41
94 -1z m6925 -28 c28 -11 49 -53 40 -81 -8 -24 -50 -35 -81 -20 -20 9 -24 18
-24 54 0 60 11 68 65 47z m-3499 -243 c-8 -36 -29 -91 -45 -123 -16 -33 -38
-81 -48 -109 -11 -27 -36 -72 -57 -99 -21 -28 -58 -91 -83 -140 -25 -50 -46
-92 -47 -93 -2 -2 -43 11 -92 27 -49 17 -117 34 -151 37 -35 3 -63 9 -63 13 0
3 31 58 70 121 38 63 93 155 122 206 l53 92 144 58 c176 71 205 82 209 78 2
-1 -4 -32 -12 -68z m134 23 c25 -6 96 -28 159 -48 113 -37 115 -37 130 -77 8
-22 55 -117 103 -211 48 -95 88 -177 88 -183 0 -6 -16 -11 -34 -11 -19 0 -83
-9 -142 -21 -58 -11 -107 -19 -108 -17 -1 2 -10 24 -20 50 -9 25 -58 129 -108
230 -78 159 -138 295 -138 314 0 4 6 2 13 -4 6 -5 32 -15 57 -22z m-3637 -53
c125 -53 182 -207 123 -332 -60 -130 -219 -182 -333 -109 -73 48 -120 144
-108 224 14 98 67 177 140 211 47 22 132 25 178 6z m7320 -1 c185 -56 236
-288 92 -415 -58 -50 -99 -64 -174 -58 -75 6 -128 38 -176 106 -28 40 -30 49
-30 134 0 82 3 97 27 139 54 90 154 126 261 94z m-686 -47 c11 -6 29 -26 39
-44 15 -28 16 -37 4 -64 -21 -51 -55 -55 -377 -45 -279 9 -282 9 -307 33 -31
29 -33 55 -7 98 15 23 29 33 53 35 77 9 574 -3 595 -13z m-5592 -13 c29 -29
43 -90 25 -111 -24 -29 -89 -36 -342 -34 l-252 1 -28 28 c-15 16 -28 36 -28
45 0 24 27 73 47 84 11 6 123 11 286 11 l268 0 24 -24z m572 -217 c15 -5 44
-26 64 -45 l36 -35 471 1 c260 0 483 -2 497 -6 25 -6 25 -8 25 -110 l0 -104
-442 1 c-244 0 -466 4 -494 8 -50 7 -52 6 -74 -26 -27 -40 -93 -73 -146 -73
-54 0 -140 45 -178 93 -25 31 -31 49 -34 100 -3 56 0 67 27 110 50 78 164 118
248 86z m2089 -135 l72 -141 -45 -89 c-49 -98 -60 -113 -116 -143 -63 -35
-187 -21 -240 27 -27 24 -65 103 -73 151 -7 46 2 75 55 166 80 137 132 177
226 173 l50 -3 71 -141z m1894 117 c46 -24 90 -80 100 -127 43 -190 -200 -326
-325 -183 l-30 34 -465 -3 c-256 -2 -478 -1 -495 2 l-30 6 3 105 3 105 498 0
c496 0 498 0 517 21 53 61 153 78 224 40z m-5137 -213 c16 -9 75 -11 207 -9
178 3 186 2 205 -18 12 -15 19 -37 19 -68 1 -69 -12 -73 -224 -73 -160 0 -181
-2 -245 -25 -94 -33 -115 -32 -152 8 -54 56 -55 112 -3 167 26 28 33 30 100
30 39 0 81 -5 93 -12z m2658 -27 c36 -12 73 -29 82 -39 9 -9 31 -53 50 -97 28
-66 40 -83 73 -102 43 -25 81 -43 93 -43 37 0 88 -101 98 -192 7 -71 11 -70
-150 -28 -63 17 -131 30 -151 30 l-36 0 -107 213 c-59 116 -115 230 -124 253
l-17 40 61 -7 c34 -4 92 -17 128 -28z m989 24 c0 -20 -34 -84 -43 -78 -6 3 -7
1 -3 -5 4 -6 -8 -40 -25 -74 -18 -35 -58 -126 -89 -203 l-57 -140 -153 -8
c-84 -4 -154 -6 -156 -4 -10 9 88 213 115 241 18 19 44 65 59 106 l27 73 65
25 c36 13 81 29 100 34 143 39 160 42 160 33z m2736 -13 c24 -13 44 -60 44
-103 0 -18 -10 -36 -31 -53 -33 -28 -45 -32 -130 -40 -48 -5 -61 -3 -85 17
-27 21 -37 22 -217 22 l-189 0 -25 29 c-31 36 -26 80 14 116 l28 25 285 0
c199 -1 291 -5 306 -13z m-4184 -336 c-42 -40 -104 -97 -138 -127 -33 -30
-105 -103 -160 -162 -118 -130 -159 -157 -235 -157 -59 0 -128 27 -168 63 -27
26 -76 118 -86 164 -9 46 11 131 43 178 15 22 50 53 77 70 l48 30 326 5 c179
3 336 7 348 8 18 2 5 -15 -55 -72z m2375 44 c96 -42 153 -128 153 -233 0 -99
-44 -174 -129 -221 -67 -36 -145 -45 -192 -21 -18 10 -113 95 -209 190 -96 94
-208 203 -248 241 l-73 69 325 -2 c307 -2 328 -3 373 -23z m-522 -453 c165
-164 313 -304 330 -311 43 -18 102 -88 115 -136 25 -93 -49 -190 -145 -190
-62 0 -107 34 -173 130 -17 25 -43 59 -58 75 -16 17 -82 88 -149 160 -66 71
-182 193 -258 269 l-138 140 54 55 c63 66 87 102 88 133 l0 23 17 -25 c9 -13
152 -159 317 -323z m-1596 291 c13 -23 44 -63 69 -90 l45 -48 -36 -42 c-19
-24 -151 -163 -293 -309 -164 -169 -273 -289 -296 -328 -77 -126 -191 -144
-278 -44 -24 27 -30 43 -30 79 0 83 53 165 120 185 30 9 102 76 351 325 173
173 316 314 319 314 3 0 16 -19 29 -42z m4589 -22 c59 -31 102 -94 102 -151 0
-78 -61 -154 -141 -175 -52 -14 -87 -1 -129 46 l-29 34 -98 -10 c-103 -11
-1153 -12 -1523 -1 -201 6 -205 6 -208 28 -2 12 4 35 12 52 9 16 16 41 16 54
0 23 4 24 83 31 146 11 1103 17 1406 9 l294 -8 19 25 c54 68 137 97 196 66z
m-7642 -41 l45 -46 771 1 c425 0 788 3 808 6 36 6 37 6 93 -77 48 -71 54 -85
39 -90 -22 -8 -1315 -16 -1547 -9 l-180 5 -35 -37 c-87 -90 -215 -37 -250 104
-11 41 -10 52 6 85 11 21 38 52 62 70 36 27 53 33 93 33 45 0 53 -4 95 -45z
m4274 -506 c211 -225 242 -279 221 -378 -21 -99 -67 -168 -134 -203 -124 -63
-267 -9 -338 130 -24 46 -24 51 -27 386 l-3 339 88 -81 c48 -45 135 -132 193
-193z m-959 -179 c-7 -177 -13 -225 -30 -270 -33 -88 -71 -126 -148 -150 -80
-25 -118 -20 -191 24 -114 67 -162 240 -95 345 10 17 120 135 244 263 l224
231 3 -114 c2 -63 -1 -211 -7 -329z m449 -38 c-1 -401 0 -414 20 -442 101
-141 69 -296 -70 -345 -82 -29 -159 1 -210 82 -49 77 -40 178 25 273 l24 35
-1 285 c-1 157 -1 339 0 405 l2 120 105 0 105 0 0 -413z m-1853 262 c37 -10
58 -121 31 -156 -12 -15 -90 -17 -758 -21 -410 -2 -870 -2 -1022 2 -306 7
-311 8 -311 71 0 35 52 96 87 103 34 7 1949 7 1973 1z m5632 -23 c32 -23 61
-73 61 -106 0 -9 -17 -24 -37 -33 -35 -16 -110 -17 -933 -15 -492 1 -973 5
-1068 8 l-173 7 -15 30 c-15 29 -15 30 32 85 l48 55 1025 -4 1026 -3 34 -24z
m-7577 -381 c20 -6 49 -25 65 -43 l28 -32 913 3 913 3 20 -23 c29 -34 61 -104
57 -125 -2 -10 -18 -21 -38 -27 -20 -5 -416 -11 -951 -13 l-916 -4 -13 -23
c-19 -37 -69 -68 -115 -73 -81 -10 -162 60 -181 155 -17 84 75 194 176 211 3
1 22 -4 42 -9z m7620 0 c48 -14 97 -55 114 -97 18 -42 18 -117 0 -152 -21 -39
-77 -87 -121 -101 -60 -20 -138 13 -171 73 -9 16 -78 17 -949 20 -543 2 -957
8 -980 13 l-40 10 2 48 c1 40 7 55 32 80 l31 31 951 2 950 2 41 35 c35 31 54
39 93 45 6 0 27 -4 47 -9z m-4679 -588 c36 -23 67 -66 67 -95 0 -22 -42 -54
-80 -62 -19 -4 -697 -7 -1507 -7 -1322 0 -1474 2 -1502 16 -17 9 -35 25 -41
35 -27 52 5 126 58 134 15 2 689 4 1497 3 l1470 -1 38 -23z m4760 5 c57 -37
50 -124 -13 -158 -33 -18 -99 -19 -1595 -17 -858 0 -1573 5 -1589 9 -37 11
-76 47 -76 71 0 32 28 74 62 97 l33 21 1575 -3 c1483 -2 1577 -3 1603 -20z
m-4830 -562 c32 -8 76 -24 99 -36 63 -32 154 -125 185 -187 l26 -54 1 -427 1
-426 -35 -63 c-92 -173 -317 -259 -538 -207 -84 20 -135 48 -199 108 -67 63
-104 137 -110 219 -2 35 0 232 4 438 l8 375 29 53 c61 109 143 173 267 206 71
19 191 20 262 1z m1018 1 c36 -8 92 -25 125 -38 l58 -23 1 -113 1 -112 -30 5
c-17 2 -58 9 -90 15 -33 5 -117 10 -188 10 l-128 0 -36 -33 c-31 -28 -37 -42
-41 -84 -12 -117 28 -159 189 -198 195 -48 280 -102 332 -214 19 -41 21 -64
21 -206 0 -148 -2 -164 -24 -208 -71 -143 -237 -227 -423 -213 -48 3 -108 10
-134 16 -66 15 -202 70 -206 84 -2 6 -2 53 0 105 l3 94 95 -7 c52 -3 127 -13
165 -21 184 -39 269 2 283 138 13 121 -5 140 -184 187 -181 47 -278 106 -335
205 -53 89 -57 289 -8 397 43 96 149 182 263 214 61 17 211 17 291 0z m1664
-91 c18 -55 55 -158 82 -230 60 -157 155 -449 195 -600 56 -209 118 -460 118
-477 0 -16 -12 -18 -114 -18 -110 0 -115 1 -122 23 -3 12 -25 73 -46 135 l-40
112 -191 -2 -191 -3 -40 -128 -41 -128 -127 -3 c-138 -3 -138 -3 -117 51 6 15
33 105 59 198 57 202 76 260 210 640 56 160 120 344 142 410 l40 120 75 0 76
0 32 -100z m2255 93 c0 -6 -20 -41 -44 -77 -52 -79 -281 -446 -320 -514 -42
-72 -34 -96 116 -354 42 -72 107 -192 144 -265 37 -73 78 -150 91 -170 l23
-38 -142 0 -143 1 -154 272 c-196 346 -181 323 -192 306 -5 -8 -9 -141 -9
-296 l0 -283 -120 0 -120 0 -2 63 c0 34 0 352 1 707 l2 645 120 3 120 3 -3
-281 c-2 -154 -2 -280 -2 -280 1 0 28 46 60 103 65 116 178 291 248 387 l48
65 106 6 c59 3 122 6 140 7 19 1 32 -3 32 -10z m-7708 -685 c2 -379 2 -698 0
-710 -4 -22 -8 -22 -117 -20 l-114 2 -6 80 c-3 44 -4 271 -1 505 3 234 5 516
5 628 l1 202 114 0 113 0 5 -687z m332 639 c62 -100 193 -324 279 -477 90
-160 152 -261 167 -270 10 -6 24 512 18 672 l-5 123 124 0 123 0 0 -710 0
-710 -90 0 -89 0 -72 123 c-303 516 -334 568 -368 607 l-30 35 -1 -382 0 -383
-125 0 -124 0 -3 513 c-2 281 -2 601 0 710 l3 197 82 0 82 -1 29 -47z m1051
-35 c22 -45 71 -133 109 -197 61 -102 142 -242 269 -467 22 -40 44 -73 49 -73
4 0 8 185 8 410 l0 410 125 0 125 0 -2 -707 -3 -708 -86 -3 -85 -3 -61 93
c-33 51 -78 125 -99 163 -20 39 -50 88 -64 110 -15 22 -69 112 -120 200 -51
88 -100 168 -109 179 -15 17 -16 -12 -21 -360 l-5 -379 -122 -3 -123 -3 0 711
0 710 88 -1 87 0 40 -82z m3296 67 c119 -34 218 -136 256 -264 25 -83 24 -308
-1 -375 -42 -111 -128 -192 -253 -237 -47 -17 -83 -21 -190 -22 l-133 -1 0
-101 c0 -55 -3 -168 -6 -250 l-7 -149 -116 0 -116 0 0 708 0 707 256 0 c202 0
267 -3 310 -16z m1774 2 c103 -27 184 -91 235 -187 29 -54 34 -77 43 -181 13
-138 1 -252 -33 -318 -28 -54 -81 -112 -124 -135 -20 -11 -36 -22 -36 -25 0
-3 54 -126 120 -274 66 -147 120 -272 120 -277 0 -5 -60 -9 -134 -9 l-134 0
-12 33 c-7 17 -49 106 -93 197 -44 91 -92 194 -107 230 -15 36 -32 65 -38 64
-7 -1 -38 -2 -69 -2 l-58 -2 3 -260 3 -260 -119 0 -119 0 -6 302 c-9 383 -9
792 0 976 l6 142 251 0 c177 0 266 -4 301 -14z m-5121 -1843 l166 -6 -2 -304
-3 -304 -517 1 c-285 0 -526 3 -535 7 -10 3 -37 21 -60 40 -54 43 -99 135
-114 232 -14 92 -6 161 26 226 36 73 57 96 96 105 42 10 715 12 943 3z m5595
-17 c11 -10 37 -50 58 -89 36 -68 38 -77 38 -162 0 -82 -3 -97 -33 -157 -33
-66 -105 -143 -162 -173 -22 -11 -131 -15 -559 -17 l-531 -3 0 275 c0 166 4
290 11 314 l11 39 574 -5 c530 -4 575 -6 593 -22z m-2340 -76 c33 -18 72 -45
87 -61 l29 -30 -25 -20 c-76 -60 -77 -60 -91 -42 -19 23 -109 63 -141 63 -58
0 -123 -43 -154 -102 -23 -44 -18 -125 10 -173 49 -84 189 -107 261 -44 34 30
36 31 58 15 12 -9 37 -26 54 -39 18 -12 33 -25 33 -30 0 -15 -123 -97 -158
-104 -20 -4 -69 -8 -108 -7 -121 1 -227 70 -276 180 -24 56 -26 175 -4 229 40
94 125 174 209 196 61 16 154 2 216 -31z m-2324 -10 c67 -37 95 -85 95 -167 0
-34 -5 -74 -11 -90 -12 -33 -68 -93 -86 -93 -21 0 -16 -12 52 -113 l64 -97
-73 0 -74 0 -30 41 c-17 23 -43 66 -59 95 l-28 55 -74 -3 -74 -3 2 -92 2 -93
-65 0 -66 0 0 299 0 300 188 -6 c180 -5 189 -6 237 -33z m818 28 c-2 -5 -3
-33 -3 -63 l0 -55 -175 0 -175 0 0 -55 0 -55 48 -2 c26 -1 84 0 130 1 l82 3 0
-61 0 -61 -130 0 -130 0 0 -55 0 -55 180 0 c203 0 186 8 174 -84 l-7 -46 -233
0 -234 0 0 295 0 295 188 3 c251 4 287 3 285 -5z m577 4 c0 -5 23 -47 51 -93
29 -46 73 -129 100 -184 26 -55 72 -146 102 -201 l54 -102 -36 -6 c-20 -3 -52
-6 -71 -6 -34 0 -36 3 -60 63 l-25 62 -151 3 -150 3 -29 -58 c-16 -32 -34 -61
-40 -65 -5 -4 -30 -8 -54 -8 l-43 0 6 33 c9 46 87 250 128 333 19 38 49 106
67 152 l33 82 59 0 c33 0 59 -4 59 -8z m1784 -34 c-12 -94 -3 -87 -112 -90
l-97 -3 -8 -55 c-4 -30 -4 -116 -1 -191 3 -75 3 -155 -1 -178 l-7 -41 -64 0
-65 0 7 235 7 235 -102 0 -102 0 5 63 c3 34 5 63 5 65 1 1 123 2 271 2 l270 0
-6 -42z"/>
<path d="M3124 8740 c-60 -24 -95 -113 -74 -189 21 -77 127 -120 187 -75 68
51 89 122 57 190 -34 71 -103 101 -170 74z"/>
<path d="M1700 8192 c-15 -12 -24 -33 -27 -63 -5 -41 -2 -48 22 -67 39 -31 80
-28 116 7 38 38 39 83 3 116 -32 30 -82 33 -114 7z"/>
<path d="M3628 7383 c6 -2 18 -2 25 0 6 3 1 5 -13 5 -14 0 -19 -2 -12 -5z"/>
<path d="M6558 7373 c12 -2 30 -2 40 0 9 3 -1 5 -23 4 -22 0 -30 -2 -17 -4z"/>
<path d="M1504 7220 c-35 -14 -86 -80 -80 -104 3 -11 6 -26 6 -32 0 -6 12 -23
26 -38 31 -30 95 -36 131 -11 55 39 49 139 -11 176 -34 21 -41 22 -72 9z"/>
<path d="M8835 7206 c-41 -18 -65 -47 -72 -88 -7 -50 35 -97 94 -105 39 -5 46
-2 78 30 29 29 35 42 35 77 0 33 -6 48 -29 71 -32 32 -60 35 -106 15z"/>
<path d="M3928 6305 c-32 -13 -70 -32 -85 -43 -47 -33 -101 -45 -172 -39 -41
3 -56 2 -41 -3 51 -17 128 -11 197 16 38 14 73 26 80 27 6 0 31 15 54 34 49
39 44 40 -33 8z"/>
<path d="M6407 6255 c38 -27 107 -55 133 -54 19 0 16 3 -15 13 -22 7 -59 22
-82 34 -49 26 -67 29 -36 7z"/>
<path d="M6588 6213 c7 -3 16 -2 19 1 4 3 -2 6 -13 5 -11 0 -14 -3 -6 -6z"/>
<path d="M9019 6250 c-9 -5 -22 -23 -29 -40 -10 -24 -10 -33 1 -46 33 -40 97
-33 118 12 23 52 -40 104 -90 74z"/>
<path d="M1325 6234 c-14 -15 -25 -30 -25 -35 0 -4 14 -21 31 -38 36 -37 72
-40 93 -9 52 74 -38 148 -99 82z"/>
<path d="M5810 5394 c-53 -16 -89 -21 -125 -18 -40 4 -46 3 -32 -6 31 -20 206
10 242 42 13 11 1 9 -85 -18z"/>
<path d="M4645 5399 c-56 -28 -66 -30 -145 -25 -52 3 -75 2 -60 -4 64 -21 193
-6 228 28 7 6 20 12 27 12 8 0 17 5 20 10 10 15 -5 11 -70 -21z"/>
<path d="M1356 5319 c-64 -50 -5 -145 74 -118 53 19 67 79 27 117 -29 28 -67
28 -101 1z"/>
<path d="M8980 5320 c-40 -40 -15 -130 36 -130 35 0 74 42 74 80 0 37 -31 70
-65 70 -14 0 -34 -9 -45 -20z"/>
<path d="M4090 4034 c-19 -8 -47 -27 -62 -41 l-28 -26 1 -341 c1 -188 5 -358
10 -378 16 -63 103 -118 188 -118 48 0 92 23 134 69 l37 41 0 228 c0 125 3
284 7 353 l6 126 -38 41 c-22 25 -52 46 -73 52 -53 14 -141 12 -182 -6z"/>
<path d="M6866 3693 c-24 -49 -96 -262 -96 -283 0 -15 16 -17 125 -16 69 1
125 5 125 10 0 16 -70 233 -90 281 -11 25 -25 45 -33 45 -7 0 -21 -17 -31 -37z"/>
<path d="M5900 3838 l0 -208 125 0 126 0 44 45 45 44 0 115 c0 114 0 116 -30
149 -41 47 -68 55 -197 59 l-113 3 0 -207z"/>
<path d="M7680 3840 l0 -205 134 5 c116 4 137 8 156 25 42 38 50 68 50 184 0
102 -2 111 -25 139 -35 42 -66 51 -197 54 l-118 3 0 -205z"/>
<path d="M2060 2150 l0 -110 48 0 47 0 -3 97 c-2 54 -5 103 -6 108 -2 6 -22
12 -45 13 l-41 3 0 -111z"/>
<path d="M2240 2150 l0 -110 78 7 c42 3 78 7 79 7 1 1 0 25 -4 54 -6 50 -6 51
-41 54 -46 4 -56 28 -12 28 45 0 70 16 70 45 0 25 -1 25 -85 25 l-85 0 0 -110z"/>
<path d="M2734 2226 c-8 -44 1 -58 34 -54 25 3 25 3 23 -64 l-2 -68 35 0 36 0
0 69 c0 65 1 69 25 75 18 5 25 13 25 29 0 38 -19 47 -97 47 l-72 0 -7 -34z"/>
<path d="M2572 2242 c-18 -6 -82 -139 -82 -169 0 -20 4 -22 68 -21 37 0 78 -2
92 -4 38 -5 36 23 -6 112 -37 79 -47 91 -72 82z"/>
<path d="M7533 2252 l-63 -3 0 -98 0 -99 69 0 c44 -1 73 4 80 12 17 20 0 57
-32 71 l-30 12 29 14 c25 12 29 20 29 53 0 44 2 43 -82 38z"/>
<path d="M7781 2228 c-5 -13 -20 -52 -35 -87 -14 -36 -26 -70 -26 -76 0 -8 29
-11 93 -9 148 2 142 1 125 22 -8 9 -27 40 -43 67 -33 59 -73 105 -92 105 -7 0
-17 -10 -22 -22z"/>
<path d="M8074 2242 c-16 -10 -34 -48 -27 -56 3 -3 23 -6 44 -6 l38 0 3 -67 3
-68 38 -3 37 -3 0 70 0 71 30 0 c28 0 30 3 30 35 l0 35 -92 0 c-51 0 -98 -4
-104 -8z"/>
<path d="M3500 2164 l0 -84 106 0 c100 0 139 8 156 34 14 21 8 81 -12 106 -18
24 -24 25 -134 26 l-116 2 0 -84z"/>
<path d="M5143 2217 c-18 -22 -82 -180 -77 -189 6 -10 103 -10 156 0 l37 7
-43 91 c-46 97 -58 111 -73 91z"/>
</g>
</svg>
